<?xml version="1.0" encoding="UTF-8" standalone="no"?>
<!-- Created with Inkscape (http://www.inkscape.org/) -->

<svg
   xmlns:dc="http://purl.org/dc/elements/1.1/"
   xmlns:cc="http://creativecommons.org/ns#"
   xmlns:rdf="http://www.w3.org/1999/02/22-rdf-syntax-ns#"
   xmlns:svg="http://www.w3.org/2000/svg"
   xmlns="http://www.w3.org/2000/svg"
   xmlns:sodipodi="http://sodipodi.sourceforge.net/DTD/sodipodi-0.dtd"
   xmlns:inkscape="http://www.inkscape.org/namespaces/inkscape"
   width="24.696663mm"
   height="12.673997mm"
   viewBox="0 0 24.696665 12.673998"
   version="1.1"
   id="svg2044"
   inkscape:version="0.92.5 (2060ec1f9f, 2020-04-08)"
   sodipodi:docname="car.svg">
  <defs
     id="defs2038" />
  <sodipodi:namedview
     id="base"
     pagecolor="#ffffff"
     bordercolor="#666666"
     borderopacity="1.0"
     inkscape:pageopacity="0.0"
     inkscape:pageshadow="2"
     inkscape:zoom="0.35"
     inkscape:cx="-379.22478"
     inkscape:cy="-219.25882"
     inkscape:document-units="mm"
     inkscape:current-layer="layer1"
     showgrid="false"
     fit-margin-top="1"
     fit-margin-right="1"
     fit-margin-bottom="1"
     fit-margin-left="1"
     inkscape:window-width="1848"
     inkscape:window-height="1016"
     inkscape:window-x="72"
     inkscape:window-y="27"
     inkscape:window-maximized="1" />
  <metadata
     id="metadata2041">
    <rdf:RDF>
      <cc:Work
         rdf:about="">
        <dc:format>image/svg+xml</dc:format>
        <dc:type
           rdf:resource="http://purl.org/dc/dcmitype/StillImage" />
        <dc:title></dc:title>
      </cc:Work>
    </rdf:RDF>
  </metadata>
  <g
     inkscape:label="Capa 1"
     inkscape:groupmode="layer"
     id="layer1"
     transform="translate(-27.387152,-78.147105)">
    <g
       transform="matrix(0.35277777,0,0,-0.35277777,-192.04251,161.10232)"
       id="g1858">
      <path
         d="m 673.523,217.465 c -0.191,-0.314 -0.529,-0.506 -0.895,-0.506 h -20.793 c -0.574,0 -1.041,0.466 -1.041,1.041 0,0.501 0.38,0.862 0.85,0.962 l -0.225,1.14 c -0.538,-0.061 -1.048,0.294 -1.138,0.84 l -1.187,7.043 c -0.049,0.286 0.024,0.579 0.199,0.808 0.18,0.232 0.444,0.376 0.733,0.403 1.837,0.165 3.683,0.232 5.529,0.198 1.798,-0.035 3.099,-0.06 4.562,-0.339 3.278,-0.636 5.51,-2.195 6.843,-3.125 2.761,-1.929 4.978,-4.43 6.587,-7.44 0.171,-0.321 0.163,-0.711 -0.024,-1.025 z m -23.969,-0.137 c -0.195,-0.235 -0.488,-0.369 -0.793,-0.369 H 637.38 c -0.573,0 -1.041,0.466 -1.041,1.041 0,0.036 0.033,0.057 0.037,0.09 l -2.662,-0.035 c 10e-4,-0.021 0.023,-0.033 0.023,-0.055 0,-0.575 -0.468,-1.041 -1.042,-1.041 h -3.208 c -0.336,0 -0.658,0.165 -0.853,0.444 -0.191,0.277 -0.24,0.632 -0.126,0.951 0.797,2.207 2.004,4.153 3.591,5.789 3.853,3.966 8.656,4.805 11.177,4.953 l 3.842,-0.047 c 0.504,-0.006 0.931,-0.374 1.017,-0.872 l 1.654,-10.006 c 0.049,-0.303 -0.036,-0.609 -0.235,-0.843 z m 39.205,-7.291 h -0.47 v -0.001 h -0.534 l -1.411,0.001 h -4.676 c -0.659,0 -1.195,0.465 -1.195,1.041 v 3.497 c 0,0.299 0.143,0.581 0.401,0.779 0.257,0.196 0.608,0.292 0.94,0.253 l 4.748,-0.504 h -10e-4 l 0.466,-0.05 0.735,-0.078 1.017,-0.108 c -1.09,4.046 -4.496,7.029 -8.567,7.029 h -4.828 c -3.345,6.309 -9.972,10.418 -17.226,10.418 h -14.976 c -10e-4,0 -10e-4,-0.001 -10e-4,-0.001 l -0.003,0.001 c -8.087,0 -15.43,-5.086 -18.272,-12.66 -0.027,-0.077 -0.057,-0.185 -0.063,-0.316 -10e-4,-0.015 0.002,-0.025 0.002,-0.038 -10e-4,-0.002 -0.004,-0.008 -0.005,-0.01 0,-2.161 0,-4.322 0,-6.483 0,-3.469 2.823,-6.29 6.29,-6.29 h 2.628 c -0.066,0.337 -0.102,0.684 -0.102,1.041 0,3.018 2.446,5.464 5.464,5.464 3.019,0 5.465,-2.446 5.465,-5.464 0,-0.357 -0.037,-0.704 -0.103,-1.042 h 19.977 c -0.061,0.326 -0.097,0.661 -0.097,1.005 0,2.675 1.926,4.895 4.466,5.366 0.322,0.062 0.655,0.098 0.999,0.098 0.343,0 0.675,-0.036 0.997,-0.098 2.541,-0.47 4.468,-2.69 4.468,-5.366 0,-0.344 -0.036,-0.679 -0.097,-1.005 h 10.01 c 1.981,0 3.557,1.59 3.853,3.629 -0.107,-0.027 -0.183,-0.108 -0.299,-0.108"
         style="fill:#2fafef;fill-opacity:1;fill-rule:nonzero;stroke:none;stroke-width:0.1"
         id="path506"
         inkscape:connector-curvature="0" />
      <path
         d="m 675.256,207.557 c 0,0.136 -0.166,0.821 -0.211,1.041 h -10e-4 c -0.436,2.154 -2.075,3.875 -4.22,4.289 -0.009,0.002 -0.017,0.006 -0.025,0.007 -0.016,0.002 -0.031,0.004 -0.046,0.007 -0.302,0.051 -0.61,0.084 -0.926,0.084 -0.316,0 -0.624,-0.033 -0.925,-0.084 -0.015,-0.003 -0.032,-0.005 -0.048,-0.007 -0.008,-0.001 -0.017,-0.005 -0.026,-0.007 -0.271,-0.053 -0.534,-0.127 -0.787,-0.219 -2.138,-0.741 -3.679,-2.758 -3.679,-5.147 0,-0.344 0.036,-0.679 0.097,-1.005 0.473,-2.537 2.694,-4.459 5.368,-4.459 2.674,0 4.896,1.922 5.368,4.459 h -0.151 c 0.071,0.347 0.212,0.672 0.212,1.041"
         style="fill:#363536;fill-opacity:1;fill-rule:nonzero;stroke:none;stroke-width:0.1"
         id="path508"
         inkscape:connector-curvature="0" />
      <path
         d="m 670.824,212.887 c 2.145,-0.414 3.784,-2.135 4.22,-4.289 h 10e-4 c 0.045,-0.22 0.211,-0.905 0.211,-1.041 0,-0.369 -0.141,-0.694 -0.212,-1.041 h 0.151 c 0.061,0.326 0.097,0.661 0.097,1.005 0,2.676 -1.927,4.896 -4.468,5.366"
         style="fill:#363536;fill-opacity:1;fill-rule:nonzero;stroke:none;stroke-width:0.1"
         id="path510"
         inkscape:connector-curvature="0" />
      <path
         d="m 639.12,213.022 c -3.018,0 -5.464,-2.446 -5.464,-5.464 0,-0.357 0.036,-0.704 0.102,-1.041 0.486,-2.52 2.701,-4.423 5.362,-4.423 2.661,0 4.876,1.903 5.362,4.422 0.066,0.338 0.103,0.685 0.103,1.042 0,3.018 -2.446,5.464 -5.465,5.464"
         style="fill:#363536;fill-opacity:1;fill-rule:nonzero;stroke:none;stroke-width:0.1"
         id="path512"
         inkscape:connector-curvature="0" />
      <path
         d="m 637.38,219.042 h 10.152 l -1.311,7.937 -2.897,0.039 c -1.712,-0.105 -6.241,-0.738 -9.729,-4.328 -1.037,-1.066 -1.888,-2.29 -2.541,-3.648 h 1.641 c 0.552,0 0.987,-0.44 1.019,-0.986 l 2.662,0.035 c 0.053,0.525 0.465,0.951 1.004,0.951"
         style="fill:#99d558;fill-opacity:1;fill-rule:nonzero;stroke:none;stroke-width:0.1"
         id="path514"
         inkscape:connector-curvature="0" />
      <path
         d="m 670.803,219.042 c -1.342,2.043 -3.029,3.778 -5.034,5.18 -1.277,0.891 -3.204,2.238 -6.045,2.787 -1.286,0.248 -2.449,0.269 -4.208,0.304 -1.388,0.021 -2.791,-0.011 -4.182,-0.103 l 0.996,-5.922 c 0.098,-0.567 -0.284,-1.103 -0.853,-1.199 -0.021,-0.004 -0.036,0.015 -0.058,0.013 l 0.225,-1.139 c 0.07,0.015 0.117,0.079 0.191,0.079 h 18.968"
         style="fill:#99d558;fill-opacity:1;fill-rule:nonzero;stroke:none;stroke-width:0.1"
         id="path516"
         inkscape:connector-curvature="0" />
      <path
         d="m 673.547,218.49 c -1.609,3.01 -3.825,5.512 -6.587,7.439 -1.333,0.931 -3.565,2.491 -6.843,3.125 -1.464,0.281 -2.764,0.305 -4.561,0.339 -1.847,0.035 -3.693,-0.032 -5.53,-0.197 -0.29,-0.026 -0.553,-0.172 -0.733,-0.402 -0.175,-0.231 -0.248,-0.523 -0.198,-0.809 l 1.186,-7.044 c 0.09,-0.545 0.6,-0.899 1.138,-0.84 0.022,0.003 0.037,-0.016 0.058,-0.012 0.569,0.095 0.952,0.631 0.853,1.199 l -0.996,5.922 c 1.391,0.092 2.794,0.124 4.182,0.102 1.759,-0.033 2.922,-0.055 4.208,-0.303 2.841,-0.549 4.768,-1.895 6.045,-2.788 2.005,-1.4 3.692,-3.136 5.035,-5.179 h -18.969 c -0.073,0 -0.121,-0.065 -0.191,-0.079 -0.47,-0.101 -0.85,-0.461 -0.85,-0.962 0,-0.575 0.468,-1.041 1.041,-1.041 h 20.793 c 0.366,0 0.704,0.191 0.895,0.506 0.187,0.313 0.196,0.704 0.024,1.024"
         style="fill:#244256;fill-opacity:1;fill-rule:nonzero;stroke:none;stroke-width:0.1"
         id="path518"
         inkscape:connector-curvature="0" />
      <path
         d="m 688.778,214.867 -1.587,0.168 -0.63,0.067 -4.748,0.504 c -0.332,0.04 -0.681,-0.055 -0.938,-0.253 -0.258,-0.197 -0.403,-0.479 -0.403,-0.778 v -3.497 c 0,-0.575 0.537,-1.041 1.197,-1.041 h 5.297 1.324 0.468 c 0.118,0 0.194,0.081 0.299,0.108 0.033,0.216 0.12,0.41 0.12,0.634 v 1.369 c 0,0.95 -0.164,1.851 -0.399,2.719"
         style="fill:#fbc054;fill-opacity:1;fill-rule:nonzero;stroke:none;stroke-width:0.1"
         id="path520"
         inkscape:connector-curvature="0" />
      <path
         d="m 648.135,228.178 c -0.086,0.498 -0.513,0.865 -1.017,0.872 l -3.842,0.047 c -2.521,-0.149 -7.324,-0.988 -11.177,-4.954 -1.587,-1.635 -2.793,-3.582 -3.591,-5.789 -0.114,-0.32 -0.065,-0.674 0.126,-0.951 0.195,-0.28 0.517,-0.444 0.854,-0.444 h 3.208 c 0.573,0 1.041,0.467 1.041,1.041 0,0.022 -0.022,0.033 -0.023,0.056 -0.032,0.546 -0.467,0.985 -1.018,0.985 h -1.643 c 0.654,1.36 1.505,2.582 2.541,3.65 3.489,3.59 8.019,4.221 9.73,4.327 l 2.896,-0.038 1.312,-7.939 H 637.38 c -0.539,0 -0.952,-0.425 -1.004,-0.95 -0.004,-0.034 -0.037,-0.056 -0.037,-0.091 0,-0.574 0.468,-1.041 1.041,-1.041 h 11.381 c 0.305,0 0.598,0.135 0.793,0.368 0.199,0.235 0.284,0.54 0.235,0.845 l -1.654,10.006"
         style="fill:#244256;fill-opacity:1;fill-rule:nonzero;stroke:none;stroke-width:0.1"
         id="path522"
         inkscape:connector-curvature="0" />
      <path
         d="m 627.816,215.248 h -2.746 c -0.09,0 -0.145,-0.062 -0.23,-0.076 v -1.931 c 0.085,-0.013 0.14,-0.075 0.23,-0.075 h 1.112 0.74 0.894 c 0.716,0 1.302,0.466 1.302,1.041 0,0.574 -0.586,1.041 -1.302,1.041"
         style="fill:#fbc054;fill-opacity:1;fill-rule:nonzero;stroke:none;stroke-width:0.1"
         id="path524"
         inkscape:connector-curvature="0" />
    </g>
  </g>
</svg>
